{"title":"Aroused (1985 Classic Porn) [2bUnique}","uid":9901011,"size":735371700,"categoryP":"porn","categoryS":"movies","magnet":"?xt=urn:btih:6ca42c288bcae053b15dd3b71f169336bed5a8db&amp;dn=Aroused+%281985+Classic+Porn%29+%5B2bUnique%7D&amp;tr=udp%3A%2F%2Ftracker.openbittorrent.com%3A80&amp;tr=udp%3A%2F%2Fopen.demonii.com%3A1337&amp;tr=udp%3A%2F%2Ftracker.coppersurfer.tk%3A6969&amp;tr=udp%3A%2F%2Fexodus.desync.com%3A6969","seeders":2,"leechers":0,"uploader":"2bUnique","files":1,"time":1396768464,"description":"Description\nClassic porn for the affectionado \n\nCast\nComplete credited cast:\nTraci Lords\t Traci Lords\t ...\t\nAllison Davis (as Tracy Lords)\nSheri St. Claire\t Sheri St. Claire\t ...\t\nCharlotta (as Sherri St. Claire)\nKristara Barrington\t Kristara Barrington\t ...\t\nReiko (as Christie Barrington)\nJosephine Carrington\t Josephine Carrington\t ...\t\nBelinda (as Christine Howard)\nAli Moore\t Ali Moore\t ...\t\nGirl Spied On\nSteve Powers\t Steve Powers\t ...\t\nRobert\nTom Byron\t Tom Byron\t ...\t\nGuy in Sunglasses\nPeter North\t Peter North\t ...\t\nGuy with Reiko\nGreg Derek\t Greg Derek\t ...\t\nGuy Spied On (as Alan Dark)\n\nFormat : MPEG-PS\nFile size : 701 MiB\nDuration : 1h 10mn\nOverall bit rate : 1 394 Kbps\nWriting library : encoded by TMPGEnc b12j\n\nVideo\nID : 224 (0xE0)\nFormat : MPEG Video\nFormat version : Version 1\nFormat settings, BVOP : Yes\nFormat settings, Matrix : Custom\nFormat settings, GOP : M=3, N=18\nDuration : 1h 10mn\nBit rate : 1 150 Kbps\nWidth : 352 pixels\nHeight : 240 pixels\nDisplay aspect ratio : 4:3\nFrame rate : 29.970 fps\nStandard : NTSC\nColor space : YUV\nChroma subsampling : 4:2:0\nBit depth : 8 bits\nScan type : Progressive\nCompression mode : Lossy\nBits/(Pixel*Frame) : 0.454\nTime code of first frame : 00:00:00:00\nTime code source : Group of pictures header\nStream size : 575 MiB (82%)\n\nAudio\nID : 192 (0xC0)\nFormat : MPEG Audio\nFormat version : Version 1\nFormat profile : Layer 2\nDuration : 1h 10mn\nBit rate mode : Constant\nBit rate : 224 Kbps\nChannel(s) : 2 channels\nSampling rate : 44.1 KHz\nCompression mode : Lossy\nStream size : 113 MiB (16%)","torrent":{"xt":"urn:btih:6ca42c288bcae053b15dd3b71f169336bed5a8db","amp;dn":"Aroused+%281985+Classic+Porn%29+%5B2bUnique%7D","amp;tr":["udp%3A%2F%2Ftracker.openbittorrent.com%3A80","udp%3A%2F%2Fopen.demonii.com%3A1337","udp%3A%2F%2Ftracker.coppersurfer.tk%3A6969","udp%3A%2F%2Fexodus.desync.com%3A6969"],"infoHash":"6ca42c288bcae053b15dd3b71f169336bed5a8db","infoHashBuffer":{"type":"Buffer","data":[108,164,44,40,139,202,224,83,177,93,211,183,31,22,147,54,190,213,168,219]},"announce":[],"urlList":[]}}